<?xml version="1.0" standalone="no"?>
<!DOCTYPE svg PUBLIC "-//W3C//DTD SVG 20010904//EN"
 "http://www.w3.org/TR/2001/REC-SVG-20010904/DTD/svg10.dtd">
<svg version="1.0" xmlns="http://www.w3.org/2000/svg"
 width="260.000000pt" height="260.000000pt" viewBox="0 0 260.000000 260.000000"
 preserveAspectRatio="xMidYMid meet">
<metadata>
Created by potrace 1.14, written by Peter Selinger 2001-2017
</metadata>
<g transform="translate(0.000000,260.000000) scale(0.100000,-0.100000)"
fill="#000000" stroke="none">
<path d="M1075 2580 c-406 -74 -752 -331 -936 -696 -45 -90 -102 -252 -114
-324 -3 -19 -9 -55 -13 -80 -16 -105 -7 -347 18 -460 6 -25 13 -56 16 -70 13
-60 89 -235 134 -310 194 -323 496 -537 870 -617 130 -27 382 -25 518 5 368
82 668 299 856 621 122 208 176 420 171 671 -3 158 -4 169 -34 292 -109 460
-488 840 -948 949 -122 29 -133 30 -293 34 -109 3 -170 -1 -245 -15z m385
-121 c429 -59 808 -369 943 -772 50 -148 62 -222 62 -392 -1 -142 -4 -172 -28
-267 -48 -186 -114 -321 -226 -460 -172 -215 -410 -358 -696 -419 -34 -8 -128
-13 -220 -13 -143 0 -172 3 -267 27 -112 29 -227 73 -282 106 -17 11 -44 27
-60 35 -16 8 -65 43 -108 77 -464 365 -583 1009 -281 1520 138 233 380 427
633 508 171 55 363 73 530 50z"/>
<path d="M1210 2143 c-107 -52 -249 -121 -315 -153 -66 -32 -199 -96 -297
-143 l-176 -85 7 -34 c5 -18 45 -190 91 -383 l83 -350 76 -90 c42 -49 83 -97
91 -105 8 -8 37 -42 65 -75 27 -33 62 -73 76 -90 135 -154 190 -217 223 -258
21 -26 42 -47 46 -47 8 0 118 53 515 244 110 54 271 132 358 174 l158 76 -6
36 c-9 43 -12 64 -20 115 -3 22 -17 110 -31 195 -24 148 -27 171 -39 257 -6
44 -13 87 -22 133 -4 19 -7 40 -8 45 0 6 -5 37 -10 70 -5 33 -8 63 -7 67 2 6
-14 20 -69 60 -34 24 -212 156 -224 165 -25 20 -351 260 -360 265 -5 3 -98
-37 -205 -89z m206 -121 c10 -9 91 -70 179 -135 88 -64 174 -128 190 -141 l30
-24 -25 -10 c-14 -5 -54 -23 -90 -40 -36 -16 -87 -39 -115 -52 -27 -12 -122
-55 -210 -95 -88 -40 -182 -83 -210 -95 -27 -12 -67 -31 -88 -41 l-38 -18 -97
86 c-53 47 -128 113 -166 147 -38 33 -75 65 -82 69 -21 12 -17 26 9 36 21 9
253 121 547 264 74 37 138 67 141 67 3 0 14 -8 25 -18z m505 -459 c0 -10 2
-25 4 -33 2 -12 36 -228 50 -320 2 -14 11 -65 19 -115 8 -49 18 -109 21 -133
l6 -42 -73 -34 c-40 -18 -176 -84 -303 -146 -328 -160 -376 -182 -381 -178 -3
4 -45 182 -58 253 -5 22 -23 110 -60 285 -13 63 -23 117 -20 121 2 3 52 28
111 54 59 26 140 63 178 80 39 18 147 67 240 110 94 42 188 85 210 96 50 23
55 23 56 2z m-1186 -153 c23 -19 72 -62 110 -95 38 -33 76 -68 85 -78 10 -10
30 -81 50 -175 18 -86 40 -192 50 -234 10 -43 15 -78 11 -78 -3 1 -25 24 -49
53 -23 29 -57 68 -75 88 -78 88 -133 154 -148 178 -9 14 -27 71 -39 126 -13
55 -33 139 -45 187 -24 97 -27 96 50 28z"/>
</g>
</svg>
